<mxfile host="app.diagrams.net" modified="2023-04-06T00:08:46.850Z" agent="Mozilla/5.0 (Windows NT 10.0; Win64; x64) AppleWebKit/537.36 (KHTML, like Gecko) Chrome/111.0.0.0 Safari/537.36" version="21.1.0" etag="bDnuV_hglbsKFuSIYMPc" type="github">
  <diagram name="第 1 页" id="-LToaMsmaoz1UKWTeu9_">
    <mxGraphModel>
      <root>
        <mxCell id="0" />
        <mxCell id="1" parent="0" />
      </root>
    </mxGraphModel>
  </diagram>
</mxfile>
